HIERARCHY
ROOT mixamorig:Hips
{
	OFFSET 0.00 0.00 0.00
	CHANNELS 6 Xposition Yposition Zposition Zrotation Yrotation Xrotation
	JOINT mixamorig:Spine
	{
		OFFSET	0.0000	9.9235	-1.2273
		CHANNELS 3 Zrotation Yrotation Xrotation
		JOINT mixamorig:Spine1
		{
			OFFSET	-0.0001	11.6455	-1.4224
			CHANNELS 3 Zrotation Yrotation Xrotation
			JOINT mixamorig:Spine2
			{
				OFFSET	0.0001	13.3602	-1.6265
				CHANNELS 3 Zrotation Yrotation Xrotation
				JOINT mixamorig:Neck
				{
					OFFSET	0.0000	15.0325	0.7929
					CHANNELS 3 Zrotation Yrotation Xrotation
					JOINT mixamorig:Head
					{
						OFFSET	-0.0000	10.3218	3.1424
						CHANNELS 3 Zrotation Yrotation Xrotation
						JOINT mixamorig:HeadTop_End
						{
							OFFSET	0.0002	18.4747	6.6364
							CHANNELS 3 Zrotation Yrotation Xrotation
							End Site
							{
								OFFSET 0.0000 0.0000 0.0000
							}
						}
						JOINT mixamorig:LeftEye
						{
							OFFSET	2.9479	7.6817	9.1207
							CHANNELS 3 Zrotation Yrotation Xrotation
							End Site
							{
								OFFSET 0.0000 0.0000 0.0000
							}
						}
						JOINT mixamorig:RightEye
						{
							OFFSET	-2.9445	7.6817	9.1205
							CHANNELS 3 Zrotation Yrotation Xrotation
							End Site
							{
								OFFSET 0.0000 0.0000 0.0000
							}
						}
					}
				}
				JOINT mixamorig:LeftShoulder
				{
					OFFSET	6.1059	9.1104	0.7056
					CHANNELS 3 Zrotation Yrotation Xrotation
					JOINT mixamorig:LeftArm
					{
						OFFSET	12.6532	-0.3431	-2.6009
						CHANNELS 3 Zrotation Yrotation Xrotation
						JOINT mixamorig:LeftForeArm
						{
							OFFSET	27.3517	-0.9645	-1.4034
							CHANNELS 3 Zrotation Yrotation Xrotation
							JOINT mixamorig:LeftHand
							{
								OFFSET	27.5619	-0.7072	1.5500
								CHANNELS 3 Zrotation Yrotation Xrotation
								JOINT mixamorig:LeftHandMiddle1
								{
									OFFSET	12.6630	-1.3962	0.9548
									CHANNELS 3 Zrotation Yrotation Xrotation
									JOINT mixamorig:LeftHandMiddle2
									{
										OFFSET	3.6093	-0.1669	0.0778
										CHANNELS 3 Zrotation Yrotation Xrotation
										JOINT mixamorig:LeftHandMiddle3
										{
											OFFSET	3.4004	-0.6274	0.1148
											CHANNELS 3 Zrotation Yrotation Xrotation
											End Site
											{
												OFFSET 3.6205 -0.6493 0.1199
											}
										}
									}
								}
								JOINT mixamorig:LeftHandThumb1
								{
									OFFSET	3.3268	-2.0474	3.5790
									CHANNELS 3 Zrotation Yrotation Xrotation
									JOINT mixamorig:LeftHandThumb2
									{
										OFFSET	3.4890	-1.4806	2.8548
										CHANNELS 3 Zrotation Yrotation Xrotation
										JOINT mixamorig:LeftHandThumb3
										{
											OFFSET	3.4086	-1.7658	2.1133
											CHANNELS 3 Zrotation Yrotation Xrotation
											End Site
											{
												OFFSET 2.7231 -1.1597 1.7903
											}
										}
									}
								}
								JOINT mixamorig:LeftHandIndex1
								{
									OFFSET	11.9722	-1.1061	3.7324
									CHANNELS 3 Zrotation Yrotation Xrotation
									JOINT mixamorig:LeftHandIndex2
									{
										OFFSET	3.8387	-0.6406	-0.0310
										CHANNELS 3 Zrotation Yrotation Xrotation
										JOINT mixamorig:LeftHandIndex3
										{
											OFFSET	3.3346	-0.7374	-0.0133
											CHANNELS 3 Zrotation Yrotation Xrotation
											End Site
											{
												OFFSET 2.9714 -0.8030 0.0009
											}
										}
									}
								}
								JOINT mixamorig:LeftHandRing1
								{
									OFFSET	12.1659	-1.6805	-1.2769
									CHANNELS 3 Zrotation Yrotation Xrotation
									JOINT mixamorig:LeftHandRing2
									{
										OFFSET	3.5925	-0.2366	-0.0771
										CHANNELS 3 Zrotation Yrotation Xrotation
										JOINT mixamorig:LeftHandRing3
										{
											OFFSET	3.2906	-0.3266	-0.0615
											CHANNELS 3 Zrotation Yrotation Xrotation
											End Site
											{
												OFFSET 3.5423 -0.9211 -0.0200
											}
										}
									}
								}
								JOINT mixamorig:LeftHandPinky1
								{
									OFFSET	11.0508	-2.1872	-3.8040
									CHANNELS 3 Zrotation Yrotation Xrotation
									JOINT mixamorig:LeftHandPinky2
									{
										OFFSET	4.1236	-0.3047	0.1212
										CHANNELS 3 Zrotation Yrotation Xrotation
										JOINT mixamorig:LeftHandPinky3
										{
											OFFSET	2.5805	-0.2597	0.0823
											CHANNELS 3 Zrotation Yrotation Xrotation
											End Site
											{
												OFFSET 2.9027 -0.3379 0.0963
											}
										}
									}
								}
							}
						}
					}
				}
				JOINT mixamorig:RightShoulder
				{
					OFFSET	-6.1057	9.1105	0.7056
					CHANNELS 3 Zrotation Yrotation Xrotation
					JOINT mixamorig:RightArm
					{
						OFFSET	-12.6532	-0.3429	-2.6009
						CHANNELS 3 Zrotation Yrotation Xrotation
						JOINT mixamorig:RightForeArm
						{
							OFFSET	-27.3518	-0.9642	-1.4034
							CHANNELS 3 Zrotation Yrotation Xrotation
							JOINT mixamorig:RightHand
							{
								OFFSET	-27.5619	-0.7068	1.5501
								CHANNELS 3 Zrotation Yrotation Xrotation
								JOINT mixamorig:RightHandMiddle1
								{
									OFFSET	-12.6630	-1.3960	0.9549
									CHANNELS 3 Zrotation Yrotation Xrotation
									JOINT mixamorig:RightHandMiddle2
									{
										OFFSET	-3.6093	-0.1669	0.0778
										CHANNELS 3 Zrotation Yrotation Xrotation
										JOINT mixamorig:RightHandMiddle3
										{
											OFFSET	-3.4004	-0.6273	0.1148
											CHANNELS 3 Zrotation Yrotation Xrotation
											End Site
											{
												OFFSET -3.6205 -0.6492 0.1199
											}
										}
									}
								}
								JOINT mixamorig:RightHandThumb1
								{
									OFFSET	-3.3269	-2.0474	3.5790
									CHANNELS 3 Zrotation Yrotation Xrotation
									JOINT mixamorig:RightHandThumb2
									{
										OFFSET	-3.4890	-1.4805	2.8548
										CHANNELS 3 Zrotation Yrotation Xrotation
										JOINT mixamorig:RightHandThumb3
										{
											OFFSET	-3.4086	-1.7658	2.1133
											CHANNELS 3 Zrotation Yrotation Xrotation
											End Site
											{
												OFFSET -2.7231 -1.1596 1.7903
											}
										}
									}
								}
								JOINT mixamorig:RightHandIndex1
								{
									OFFSET	-11.9722	-1.1059	3.7324
									CHANNELS 3 Zrotation Yrotation Xrotation
									JOINT mixamorig:RightHandIndex2
									{
										OFFSET	-3.8387	-0.6406	-0.0310
										CHANNELS 3 Zrotation Yrotation Xrotation
										JOINT mixamorig:RightHandIndex3
										{
											OFFSET	-3.3346	-0.7373	-0.0133
											CHANNELS 3 Zrotation Yrotation Xrotation
											End Site
											{
												OFFSET -2.9715 -0.8029 0.0009
											}
										}
									}
								}
								JOINT mixamorig:RightHandRing1
								{
									OFFSET	-12.1659	-1.6803	-1.2769
									CHANNELS 3 Zrotation Yrotation Xrotation
									JOINT mixamorig:RightHandRing2
									{
										OFFSET	-3.5925	-0.2366	-0.0771
										CHANNELS 3 Zrotation Yrotation Xrotation
										JOINT mixamorig:RightHandRing3
										{
											OFFSET	-3.2906	-0.3265	-0.0615
											CHANNELS 3 Zrotation Yrotation Xrotation
											End Site
											{
												OFFSET -3.5423 -0.9210 -0.0200
											}
										}
									}
								}
								JOINT mixamorig:RightHandPinky1
								{
									OFFSET	-11.0508	-2.1870	-3.8040
									CHANNELS 3 Zrotation Yrotation Xrotation
									JOINT mixamorig:RightHandPinky2
									{
										OFFSET	-4.1236	-0.3046	0.1212
										CHANNELS 3 Zrotation Yrotation Xrotation
										JOINT mixamorig:RightHandPinky3
										{
											OFFSET	-2.5805	-0.2597	0.0823
											CHANNELS 3 Zrotation Yrotation Xrotation
											End Site
											{
												OFFSET -2.9027 -0.3379 0.0963
											}
										}
									}
								}
							}
						}
					}
				}
			}
		}
	}
	JOINT mixamorig:RightUpLeg
	{
		OFFSET	-9.1245	-6.6564	-0.0554
		CHANNELS 3 Zrotation Yrotation Xrotation
		JOINT mixamorig:RightLeg
		{
			OFFSET	0.0000	-40.5610	-1.7662
			CHANNELS 3 Zrotation Yrotation Xrotation
			JOINT mixamorig:RightFoot
			{
				OFFSET	0.4978	-41.9625	-3.3512
				CHANNELS 3 Zrotation Yrotation Xrotation
				JOINT mixamorig:RightToeBase
				{
					OFFSET	-0.3734	-10.4922	12.6406
					CHANNELS 3 Zrotation Yrotation Xrotation
					End Site
					{
						OFFSET 0.0000 0.0000 9.9925
					}
				}
			}
		}
	}
	JOINT mixamorig:LeftUpLeg
	{
		OFFSET	9.1245	-6.6564	-0.0554
		CHANNELS 3 Zrotation Yrotation Xrotation
		JOINT mixamorig:LeftLeg
		{
			OFFSET	-0.0000	-40.5610	-1.7662
			CHANNELS 3 Zrotation Yrotation Xrotation
			JOINT mixamorig:LeftFoot
			{
				OFFSET	-0.4978	-41.9625	-3.3512
				CHANNELS 3 Zrotation Yrotation Xrotation
				JOINT mixamorig:LeftToeBase
				{
					OFFSET	0.3734	-10.4922	12.6406
					CHANNELS 3 Zrotation Yrotation Xrotation
					End Site
					{
						OFFSET -0.0000 0.0000 9.9925
					}
				}
			}
		}
	}
}
MOTION
Frames: 4
Frame Time: 0.0333333
4.5822 126.7604 4.4191 10.3422 -68.3760 -7.7550 6.1408 11.3822 19.7043 0.8866 4.1868 8.2641 0.8263 4.1230 8.3222 5.2612 5.7307 -11.2359 -22.3480 31.0495 -7.4345 0.0000 -0.0000 0.0000 0.0000 -0.0000 0.0000 0.0000 -0.0000 0.0000 1.1023 2.0875 -7.5516 -65.1602 -53.4437 -26.8046 139.1452 -87.6437 -141.1795 -8.2796 26.1575 -102.9708 -56.5759 -4.9933 2.7833 -57.3729 -2.1277 2.4929 -18.1970 -1.0184 0.5745 -3.8146 9.8048 10.6094 10.2850 -8.9667 12.3526 0.0858 -7.8534 -1.1633 -34.1142 -6.4026 0.7225 -57.1430 -2.8255 0.5552 -21.4655 -1.0446 -0.0945 -64.4028 -8.7298 2.9088 -70.0406 -3.8381 0.7199 -16.7069 -0.7289 -0.2235 -74.7752 -13.3784 3.1987 -62.7817 -2.1720 3.1107 -13.1780 -0.7138 0.4302 1.8215 1.1992 -7.5108 51.5273 57.9585 23.2894 -173.3244 71.5015 -175.5719 -2.5707 -19.0555 -16.8431 55.8609 1.6649 3.4035 102.8210 3.1518 6.5920 19.0075 1.4481 0.6019 17.2905 -4.5572 13.8213 -22.2355 -6.9174 19.0552 -36.6604 -48.3057 35.4873 8.7235 8.4969 -0.9775 29.9326 2.1956 -0.0227 27.1462 1.9629 -0.0561 59.9499 12.7008 2.9638 97.8265 5.9870 3.4180 41.4396 3.1945 0.1004 67.1646 10.7656 3.6627 80.8796 3.3582 5.1705 58.6928 3.2493 3.3620 -10.3102 -20.9782 -67.3538 -6.5621 4.9871 107.7133 10.7762 -13.7916 31.5884 0.0000 -0.0000 -0.5124 -0.7309 17.0589 -56.6823 -3.2122 -0.2277 79.6535 -13.1489 8.5281 7.1286 0.0000 -0.0000 6.7396 
4.0268 124.7394 4.7801 10.3801 -68.9814 -7.5036 6.0189 11.5884 18.8658 0.9032 4.3036 8.1329 0.8407 4.2511 8.1850 5.4483 5.6597 -10.5859 -22.6824 31.2585 -7.4235 0.0000 -0.0000 0.0000 0.0000 -0.0000 0.0000 0.0000 -0.0000 0.0000 1.1023 2.0874 -7.5521 -67.1762 -50.7053 -25.3622 148.6846 -86.9797 -150.7292 -8.2342 26.3828 -102.8559 -56.6229 -4.9888 2.7866 -57.3483 -2.1273 2.4914 -18.1709 -1.0171 0.5735 -3.8147 9.8041 10.6098 10.2837 -8.9598 12.3538 0.0912 -7.8535 -1.1607 -34.1734 -6.3908 0.7284 -57.1452 -2.8256 0.5553 -21.4665 -1.0446 -0.0945 -64.4608 -8.7181 2.9134 -70.0628 -3.8390 0.7208 -16.7266 -0.7301 -0.2236 -74.7734 -13.3761 3.1988 -62.8228 -2.1722 3.1134 -13.1907 -0.7145 0.4307 1.9938 1.2187 -7.5154 51.4908 56.7580 24.7217 -173.3823 71.2606 -175.6330 -2.4288 -19.4506 -17.8225 55.8021 1.6534 3.3997 102.8190 3.1518 6.5919 19.0052 1.4479 0.6018 17.2686 -4.5937 13.8274 -22.2932 -6.9881 19.0820 -36.6035 -48.2945 35.4813 8.7222 8.4782 -0.9743 29.9336 2.1956 -0.0227 27.1472 1.9630 -0.0560 59.9172 12.7040 2.9608 97.8267 5.9870 3.4181 41.4387 3.1945 0.1004 67.1216 10.7689 3.6588 80.8779 3.3582 5.1703 58.6906 3.2492 3.3618 -11.3380 -19.4675 -60.5350 -7.0018 3.6592 99.6459 10.3583 -12.9389 26.9692 0.0000 0.0000 -0.9466 -0.1254 17.1061 -48.5335 -5.4810 -1.9195 64.8916 -14.8867 12.6288 6.7396 0.0000 -0.0000 5.1907 
3.3184 121.7246 5.1759 9.7878 -69.6733 -6.6786 5.9425 11.9652 17.7541 0.9208 4.4364 7.9251 0.8601 4.3959 7.9698 5.8358 5.5807 -9.9581 -23.0375 31.6023 -7.3855 0.0000 -0.0000 0.0000 0.0000 -0.0000 0.0000 0.0000 -0.0000 0.0000 1.1023 2.0873 -7.5526 -68.7022 -47.5624 -24.5540 156.8486 -85.8991 -158.9083 -8.0455 26.3728 -103.1654 -56.6714 -4.9842 2.7899 -57.3268 -2.1269 2.4901 -18.1479 -1.0159 0.5725 -3.8160 9.8051 10.6049 10.2817 -8.9524 12.3551 0.0977 -7.8535 -1.1580 -34.2343 -6.3787 0.7346 -57.1479 -2.8257 0.5554 -21.4680 -1.0447 -0.0945 -64.5096 -8.7061 2.9174 -70.0846 -3.8399 0.7217 -16.7460 -0.7312 -0.2237 -74.7715 -13.3737 3.1988 -62.8696 -2.1724 3.1163 -13.2032 -0.7151 0.4312 1.9443 1.0596 -7.5443 51.6832 55.9796 26.4527 -173.4170 71.1132 -175.6696 -2.2860 -19.6584 -18.5863 55.8010 1.6356 3.4006 102.8124 3.1521 6.5914 19.0029 1.4477 0.6017 17.2524 -4.6273 13.8060 -22.3623 -7.0731 19.1136 -36.5384 -48.2823 35.4751 8.7259 8.4731 -0.9732 29.9346 2.1957 -0.0227 27.1482 1.9631 -0.0560 59.8800 12.7047 2.9576 97.8235 5.9870 3.4178 41.4340 3.1941 0.1002 67.0670 10.7676 3.6543 80.8765 3.3582 5.1702 58.6885 3.2492 3.3617 -11.7930 -18.5678 -53.3970 -7.4822 2.0388 89.7940 10.3812 -11.8793 22.6681 -0.0000 0.0000 -1.3796 0.4689 19.0095 -39.5415 -4.0834 -3.5000 48.9611 -15.1089 16.1345 8.1168 0.0000 -0.0000 5.0358 
2.7003 117.7044 5.6290 7.6077 -70.5945 -4.3984 6.2463 12.3703 16.6252 1.0113 4.5511 7.6872 0.9533 4.5228 7.7237 6.4037 5.5182 -9.4255 -23.5133 32.1489 -7.3656 0.0000 -0.0000 0.0000 0.0000 -0.0000 0.0000 0.0000 -0.0000 0.0000 1.1023 2.0873 -7.5530 -69.6608 -43.9793 -24.4229 163.0984 -84.2389 -165.1804 -7.6152 26.6003 -103.8282 -56.7212 -4.9793 2.7934 -57.3088 -2.1266 2.4890 -18.1283 -1.0150 0.5718 -3.8185 9.8082 10.5943 10.2790 -8.9443 12.3566 0.1054 -7.8535 -1.1551 -34.2968 -6.3665 0.7409 -57.1512 -2.8259 0.5555 -21.4700 -1.0448 -0.0945 -64.5470 -8.6939 2.9207 -70.1059 -3.8408 0.7226 -16.7648 -0.7324 -0.2239 -74.7697 -13.3711 3.1989 -62.9221 -2.1726 3.1197 -13.2152 -0.7157 0.4316 1.8359 0.8999 -7.5734 52.1696 55.6061 28.2413 -173.4394 71.0168 -175.6933 -1.5226 -19.8177 -19.5049 55.8876 1.6061 3.4089 102.8015 3.1524 6.5905 19.0006 1.4476 0.6016 17.2442 -4.6529 13.7601 -22.4483 -7.1797 19.1525 -36.4627 -48.2696 35.4693 8.7387 8.4846 -0.9746 29.9355 2.1958 -0.0227 27.1492 1.9631 -0.0560 59.8354 12.7024 2.9540 97.8156 5.9868 3.4172 41.4246 3.1934 0.1000 66.9936 10.7606 3.6487 80.8669 3.3583 5.1694 58.6778 3.2490 3.3608 -11.5358 -17.7095 -46.5003 -7.7288 0.1986 78.3720 10.9086 -11.7137 17.3687 -0.0000 -0.0000 -1.9518 1.4741 23.1025 -31.2492 -0.0492 -1.7261 35.2275 -12.2639 18.6123 11.6099 0.0000 -0.0000 5.0262 
